HIERARCHY
ROOT Hips
{
	OFFSET	0.00	0.00	0.00
	CHANNELS 6 Xposition Yposition Zposition Zrotation Xrotation Yrotation
	JOINT Spine
	{
		OFFSET	 0.00	0.01	 0.00
		CHANNELS 3 Zrotation Xrotation Yrotation
		JOINT Spine1
		{
			OFFSET	 0.00	 2.45913012437421	 0.00
			CHANNELS 3 Zrotation Xrotation Yrotation
            JOINT Neck
            {
                OFFSET	 0.00	 2.48462964506057	 0.00
                CHANNELS 3 Zrotation Xrotation Yrotation
                JOINT Head
                {
                    OFFSET	 0.00	 0.927524780924562	 0.00
                    CHANNELS 3 Zrotation Xrotation Yrotation
                    End Site 
                    {
                        OFFSET	 0.00	 1.14999962169752	 0.00
                    }
                }
            }
			JOINT LeftShoulder
			{
				OFFSET	 0.00	 2.48462964506057	 0.00
				CHANNELS 3 Zrotation Xrotation Yrotation
				JOINT LeftUpArm
				{
					OFFSET	 0.00	 1.24881979654096	 0.00
					CHANNELS 3 Zrotation Xrotation Yrotation
					JOINT LeftForeArm
					{
						OFFSET	 0.00	2.59758046908119	 0.00
						CHANNELS 3 Zrotation Xrotation Yrotation
						JOINT LeftHand
						{
							OFFSET	 0.00	2.45542024364365	 0.00
							CHANNELS 3 Zrotation Xrotation Yrotation
							JOINT LeftHandThumb 
							{
								OFFSET	 0.00	0.00	 0.00
								CHANNELS 3 Zrotation Xrotation Yrotation
								End Site
								{
									OFFSET	 0.00	0.00	1.00000003353624
								}
							}
							JOINT L_Wrist_End 
							{
								OFFSET	 0.00	0.99999967115358	 0.00
								CHANNELS 3 Zrotation Xrotation Yrotation
								End Site 
								{
									OFFSET	 0.00	 0.00	 0.00
								}
							}
						}
					}
				}
			}
			JOINT RightShoulder
			{
				OFFSET	 0.00	 2.48462964506057	 0.00
				CHANNELS 3 Zrotation Xrotation Yrotation
				JOINT RightUpArm
				{
					OFFSET	 0.00	 1.24881979654096	 0.00
					CHANNELS 3 Zrotation Xrotation Yrotation
					JOINT RightForeArm
					{
						OFFSET	 0.00	2.59758046908119	 0.00
						CHANNELS 3 Zrotation Xrotation Yrotation
						JOINT RightHand
						{
							OFFSET	 0.00	2.45542024364365	 0.00
							CHANNELS 3 Zrotation Xrotation Yrotation
							JOINT RightHandThumb 
							{
								OFFSET	 0.00	0.00	 0.00
								CHANNELS 3 Zrotation Xrotation Yrotation
								End Site
								{
									OFFSET	 0.00	0.00	1.00000003353624
								}
							}
							JOINT R_Wrist_End 
							{
								OFFSET	 0.00	0.99999967115358	 0.00
								CHANNELS 3 Zrotation Xrotation Yrotation
								End Site 
								{
									OFFSET	 0.00	 0.00	 0.00
								}
							}
						}
					}
				}
			}
		}
	}
	JOINT LeftUpLeg
	{
		OFFSET	 1.2719394002717	 0.00	 0.00
		CHANNELS 3 Zrotation Xrotation Yrotation
		JOINT LeftLowLeg
		{
			OFFSET	 0.00	-4.3429100912261	 0.00
			CHANNELS 3 Zrotation Xrotation Yrotation
			JOINT LeftFoot
			{
				OFFSET	 0.00	-4.48767017425826	 0.00
				CHANNELS 3 Zrotation Xrotation Yrotation
				JOINT LeftToeBase
                {
                    OFFSET	 0.00	0.00	 1.51507020887566
                    CHANNELS 3 Zrotation Xrotation Yrotation
                    End Site 
                    {
                        OFFSET	 0.00	0.00	 0.75000010571191
                    }
                }
			}
		}
	}
	JOINT RightUpLeg
	{
		OFFSET	 -1.2719393604653	 0.00	 0.00
		CHANNELS 3 Zrotation Xrotation Yrotation
		JOINT RightLowLeg
		{
			OFFSET	 0.00	-4.3429100912261	 0.00
			CHANNELS 3 Zrotation Xrotation Yrotation
			JOINT RightFoot
			{
				OFFSET	 0.00	-4.48767017425826	 0.00
				CHANNELS 3 Zrotation Xrotation Yrotation
				JOINT RightToeBase
                {
                    OFFSET	 0.00	0.00	 1.51507020887566
                    CHANNELS 3 Zrotation Xrotation Yrotation
                    End Site 
                    {
                        OFFSET	 0.00	0.00	 0.749999965609858
                    }
                }   
			}
		}
	}
}
MOTION 
Frames:	18 
Frame Time: 0.02 
  1.6959599304199218 -1.8931300354003906 7.352150268554688 -14.6412 80.1176 15.3174 3.89463 18.83 -0.763277 1.58595 -10.2641 0.000645484 6.3116 57.0669 333.879 118.74 -73.6844 820.02 -117.2802 -5.32743 8.90669 -26.8436 25.1439 26.3593 0.0 93.6747 0.0 -16.0452 -40.6465 -91.6253 0.0 0.0 0.0 0.0 0.0 0.0 110.5461 0.297088 -361.949 -3.36471 43.596 16.7082 0.0 129.41 0.0 -61.983 28.3714 -10.5517 0.0 0.0 0.0 0.0 0.0 0.0 11.8459 -45.52 16.2997 0.0 62.9352 0.0 -12.1788 0.28779984 4.31827 0.0 -33.4301 0.0 -0.341706 -46.0872 -3.07621 0.0 65.2792 0.0 11.6006 5.03364 5.83842 0.0 -48.434 0.0 
  1.6960899353027343 -1.893419952392578 7.352750244140625 -14.6517 80.1241 15.3258 3.88477 18.8804 -0.741088 1.5663 -10.4617 0.023463 6.35004 56.6494 333.789 118.822 -73.6441 820.085 -117.213196 -5.22415 8.99909 -26.8815 25.0708 26.371 0.0 93.6764 0.0 -16.1565 -40.6184 -91.5692 0.0 0.0 0.0 0.0 0.0 0.0 110.502 0.329994 -361.952 -3.39493 43.637 17.0098 0.0 129.378 0.0 -62.0781 28.8526 -10.3638 0.0 0.0 0.0 0.0 0.0 0.0 11.8418 -45.5187 16.2963 0.0 62.9243 0.0 -12.1769 0.29349995 4.32393 0.0 -33.4556 0.0 -0.34577 -46.0822 -3.08183 0.0 65.2646 0.0 11.6318 5.03283 5.85811 0.0 -48.4104 0.0 
  1.6963099670410156 -1.8935699462890625 7.352930297851563 -14.7359 80.1309 15.418 3.88082 18.9518 -0.71512 1.58419 -10.686 0.0527986 6.27109 56.3372 333.867 118.904 -73.6087 820.152 -117.1421 -5.14072 9.04013 -26.9676 24.9746 26.4518 0.0 93.6945 0.0 -16.101 -40.5842 -91.5195 0.0 0.0 0.0 0.0 0.0 0.0 110.422 0.297113 -361.945 -3.43038 43.7411 17.2485 0.0 129.424 0.0 -62.0003 28.8046 -10.5863 0.0 0.0 0.0 0.0 0.0 0.0 11.8409 -45.5331 16.279 0.0 62.9273 0.0 -12.1734 0.29059982 4.3332 0.0 -33.415703 0.0 -0.363045 -46.0861 -3.12952 0.0 65.2588 0.0 11.5882 5.0429897 5.85362 0.0 -48.4293 0.0 
  1.6966000366210938 -1.8938200378417969 7.3534698486328125 -14.7962 80.1325 15.4765 3.8782 18.9792 -0.708705 1.58174 -10.8291 0.0610167 6.3247 56.0209 333.777 118.991 -73.5428 820.284 -117.1376 -5.10628 9.08635 -26.9441 24.9701 26.0367 0.0 93.6447 0.0 -17.9237 -40.8256 -91.1845 0.0 0.0 0.0 0.0 0.0 0.0 110.3688 0.319712 -361.908 -3.42215 43.8066 17.46 0.0 129.482 0.0 -61.7397 28.7101 -10.764 0.0 0.0 0.0 0.0 0.0 0.0 11.8442 -45.5302 16.2707 0.0 62.921 0.0 -12.1827 0.28680038 4.33136 0.0 -33.4216 0.0 -0.381529 -46.0775 -3.17645 0.0 65.2438 0.0 11.5836 5.04784 5.88986 0.0 -48.42 0.0 
  1.696790008544922 -1.8941400146484375 7.354210205078125 -14.8336 80.1348 15.5109 3.86772 18.9901 -0.709056 1.57815 -10.9648 0.057918 6.33689 55.8334 333.782 119.118 -73.4628 820.413 -117.1141 -5.10387 9.12508 -26.9585 25.0049 25.7369 0.0 93.464 0.0 -19.9401 -40.1201 -92.4453 0.0 0.0 0.0 0.0 0.0 0.0 110.3537 0.391706 -362.001 -3.55697 43.8051 17.8582 0.0 129.516 0.0 -61.6261 28.9119 -10.8226 0.0 0.0 0.0 0.0 0.0 0.0 11.8469 -45.5257 16.2682 0.0 62.9118 0.0 -12.1793 0.29069996 4.33505 0.0 -33.454002 0.0 -0.398227 -46.0692 -3.21274 0.0 65.2262 0.0 11.5826 5.0672197 5.91331 0.0 -48.4423 0.0 
  1.696929931640625 -1.894429931640625 7.355040283203125 -14.8529 80.1431 15.5233 3.85443 18.9747 -0.707802 1.57136 -11.052 0.0544159 6.30154 55.6673 333.863 119.123 -73.3954 820.431 -117.0662 -5.0773 9.10208 -27.0073 24.9661 25.939 0.0 93.3066 0.0 -19.8391 -39.2114 -94.3183 0.0 0.0 0.0 0.0 0.0 0.0 110.3442 0.465286 -362.013 -3.61604 43.7972 18.0841 0.0 129.525 0.0 -61.608 28.9137 -11.2667 0.0 0.0 0.0 0.0 0.0 0.0 11.8495 -45.5243 16.2742 0.0 62.9009 0.0 -12.172 0.29360008 4.34232 0.0 -33.41 0.0 -0.420071 -46.0636 -3.25257 0.0 65.2051 0.0 11.5658 5.0702896 5.93954 0.0 -48.4202 0.0 
  1.6971099853515625 -1.8944900512695313 7.35552978515625 -14.884 80.145 15.5484 3.84466 18.9552 -0.708915 1.56692 -11.1148 0.0496515 6.28913 55.5664 333.926 119.266 -73.291 820.603 -116.99 -5.04515 9.14302 -27.0523 24.8729 26.3814 0.0 93.5107 0.0 -17.3833 -40.1852 -92.4586 0.0 0.0 0.0 0.0 0.0 0.0 110.3345 0.499383 -362.081 -3.7646 43.8517 18.388 0.0 129.581 0.0 -61.8767 28.9932 -10.8974 0.0 0.0 0.0 0.0 0.0 0.0 11.8538 -45.5222 16.2766 0.0 62.8958 0.0 -12.1749 0.29769993 4.34814 0.0 -33.4169 0.0 -0.436387 -46.0579 -3.28914 0.0 65.1887 0.0 11.5493 5.0936604 5.95847 0.0 -48.4646 0.0 
  1.6977499389648438 -1.8941000366210938 7.35573974609375 -14.8976 80.1429 15.5527 3.85343 18.9452 -0.722619 1.54986 -11.1909 0.0412958 6.32108 55.4888 333.916 119.3 -73.2297 820.662 -116.9922 -4.99465 9.17119 -27.0328 24.8564 25.8578 0.0 93.4057 0.0 -19.6306 -40.3472 -92.2689 0.0 0.0 0.0 0.0 0.0 0.0 110.2994 0.5609 -362.143 -3.79018 43.8739 18.604 0.0 129.602 0.0 -61.9081 28.9774 -10.5091 0.0 0.0 0.0 0.0 0.0 0.0 11.8508 -45.5134 16.2725 0.0 62.8824 0.0 -12.1747 0.29189968 4.35372 0.0 -33.4216 0.0 -0.45599 -46.0532 -3.32306 0.0 65.176 0.0 11.5402 5.1067896 5.98563 0.0 -48.5028 0.0 
  1.6980099487304687 -1.8938400268554687 7.355800170898437 -14.9115 80.13 15.5635 3.86657 18.9266 -0.745402 1.50865 -11.2228 0.0252479 6.36387 55.4174 333.929 119.211 -73.1569 820.599 -116.955795 -4.98005 9.20899 -27.0235 24.8229 25.9118 0.0 93.4158 0.0 -19.2604 -40.3757 -92.0691 0.0 0.0 0.0 0.0 0.0 0.0 110.2832 0.609454 -362.259 -3.82334 43.8384 18.7616 0.0 129.631 0.0 -61.6783 28.5672 -11.0794 0.0 0.0 0.0 0.0 0.0 0.0 11.8433 -45.5072 16.2491 0.0 62.8864 0.0 -12.1848 0.29319954 4.36454 0.0 -33.438 0.0 -0.469342 -46.0406 -3.35487 0.0 65.1712 0.0 11.5187 5.12469 6.00872 0.0 -48.4759 0.0 
  1.6979800415039064 -1.8933299255371094 7.355709838867187 -14.905 80.1193 15.5653 3.88135 18.9106 -0.771121 1.463 -11.2669 0.0071641 6.43489 55.4143 333.912 119.028 -73.1161 820.419 -116.9266 -4.9403 9.24909 -27.0183 24.7731 25.9262 0.0 93.4138 0.0 -19.2069 -40.39 -91.9505 0.0 0.0 0.0 0.0 0.0 0.0 110.259 0.645396 -362.358 -3.73741 43.7829 18.7647 0.0 129.62 0.0 -61.5786 28.6001 -10.795 0.0 0.0 0.0 0.0 0.0 0.0 11.8293 -45.5036 16.225 0.0 62.8822 0.0 -12.181 0.3011999 4.37585 0.0 -33.4455 0.0 -0.484811 -46.0317 -3.38157 0.0 65.167 0.0 11.5224 5.12852 6.00673 0.0 -48.5341 0.0 
  1.6979100036621093 -1.8926499938964845 7.355570068359375 -14.8935 80.1028 15.5678 3.8921 18.8997 -0.788395 1.43322 -11.2773 -0.0049352 6.42339 55.4271 333.998 118.825 -73.0746 820.264 -116.900696 -4.93329 9.20302 -27.0692 24.7436 26.2223 0.0 93.4109 0.0 -18.8195 -39.9534 -93.1095 0.0 0.0 0.0 0.0 0.0 0.0 110.2593 0.590692 -362.389 -3.6214 43.7728 18.5894 0.0 129.556 0.0 -61.3727 28.6981 -10.7157 0.0 0.0 0.0 0.0 0.0 0.0 11.8157 -45.4951 16.2036 0.0 62.8773 0.0 -12.1757 0.3079996 4.37851 0.0 -33.4375 0.0 -0.496875 -46.0186 -3.40182 0.0 65.1675 0.0 11.5073 5.13511 6.0055 0.0 -48.4935 0.0 
  1.6975599670410155 -1.8922099304199218 7.355130004882812 -14.8997 80.0855 15.5846 3.8898 18.889 -0.796821 1.42991 -11.2911 -0.0148009 6.52551 55.4725 333.906 118.619 -73.0625 820.116 -116.8742 -4.89756 9.23323 -27.125 24.7246 26.0958 0.0 93.3035 0.0 -19.4536 -39.803 -93.2244 0.0 0.0 0.0 0.0 0.0 0.0 110.2738 0.571905 -362.474 -3.53979 43.6961 18.4339 0.0 129.477 0.0 -60.9512 28.6422 -10.8305 0.0 0.0 0.0 0.0 0.0 0.0 11.8038 -45.4913 16.1682 0.0 62.8835 0.0 -12.1872 0.30930042 4.3824 0.0 -33.434097 0.0 -0.493737 -46.0085 -3.4069 0.0 65.1722 0.0 11.5186 5.14207 5.99663 0.0 -48.5318 0.0 
  1.6973800659179688 -1.891219940185547 7.3543798828125 -14.8613 80.0569 15.5396 3.86949 18.8674 -0.794453 1.44739 -11.2776 -0.023164 6.47384 55.5954 334.023 118.344 -73.0932 819.841 -116.8568 -4.85005 9.29157 -27.1788 24.664 26.0276 0.0 93.3812 0.0 -19.1827 -40.6168 -91.4799 0.0 0.0 0.0 0.0 0.0 0.0 110.258804 0.554679 -362.467 -3.14269 43.5907 17.8954 0.0 129.322 0.0 -60.555 28.664 -11.1753 0.0 0.0 0.0 0.0 0.0 0.0 11.817 -45.4697 16.1858 0.0 62.886 0.0 -12.1843 0.3125 4.37702 0.0 -33.4722 0.0 -0.479536 -45.9942 -3.38711 0.0 65.1813 0.0 11.5175 5.1500597 5.99705 0.0 -48.5403 0.0 
  1.6971299743652344 -1.8883399963378906 7.352659912109375 -14.8168 80.0272 15.4811 3.82028 18.8678 -0.783774 1.50628 -11.3031 -0.037819 6.45245 55.8631 334.113 117.716 -73.175 819.313 -116.8499 -4.82186 9.4227 -27.2391 24.693 25.9786 0.0 93.3186 0.0 -19.3944 -40.3444 -91.7828 0.0 0.0 0.0 0.0 0.0 0.0 110.2303 0.489032 -362.66 -2.61426 43.4281 17.2286 0.0 128.906 0.0 -59.8544 28.4275 -11.9969 0.0 0.0 0.0 0.0 0.0 0.0 11.8342 -45.4664 16.2033 0.0 62.8996 0.0 -12.1748 0.32680035 4.38044 0.0 -33.4719 0.0 -0.451036 -46.0005 -3.34356 0.0 65.1945 0.0 11.5289 5.17188 5.98343 0.0 -48.5175 0.0 
  1.6964599609375 -1.8871200561523438 7.352109985351563 -14.7652 79.9847 15.4315 3.79271 18.8055 -0.796289 1.50412 -11.2596 -0.0656845 6.36626 56.3125 334.347 117.021 -73.2268 818.756 -116.8644 -4.77541 9.47662 -27.2767 24.6714 26.2276 0.0 93.1325 0.0 -18.6868 -39.429 -93.1716 0.0 0.0 0.0 0.0 0.0 0.0 110.2634 0.536356 -362.969 -2.04626 43.0506 16.4986 0.0 128.368 0.0 -59.6713 28.6988 -12.0599 0.0 0.0 0.0 0.0 0.0 0.0 11.8379 -45.4312 16.1996 0.0 62.896 0.0 -12.1898 0.3345003 4.36613 0.0 -33.4711 0.0 -0.430279 -45.9694 -3.31888 0.0 65.1967 0.0 11.5412 5.1867304 5.96987 0.0 -48.5326 0.0 
  1.6961799621582032 -1.8852999877929688 7.351099853515625 -14.7222 79.9439 15.3889 3.78644 18.7593 -0.805044 1.46579 -11.2658 -0.0768639 6.18668 56.8836 334.736 115.961 -73.3226 817.869 -116.8834 -4.70961 9.49002 -27.3438 24.6574 26.4991 0.0 93.1553 0.0 -17.6082 -40.3108 -92.5426 0.0 0.0 0.0 0.0 0.0 0.0 110.374 0.55283 -363.386 -1.47729 42.5637 15.5809 0.0 127.635 0.0 -59.732 28.7554 -11.8528 0.0 0.0 0.0 0.0 0.0 0.0 11.841 -45.4073 16.1946 0.0 62.9002 0.0 -12.1807 0.34710026 4.36818 0.0 -33.4989 0.0 -0.418255 -45.9474 -3.30685 0.0 65.2017 0.0 11.5382 5.1986103 5.96136 0.0 -48.5338 0.0 
  1.6959800720214844 -1.8833500671386718 7.349760131835938 -14.6446 79.884 15.3228 3.7838 18.7422 -0.80439 1.47063 -11.3254 -0.0764896 5.48139 57.6719 335.775 114.7 -73.5756 816.59 -116.916595 -4.61641 9.52602 -27.4314 24.5806 26.4863 0.0 93.0207 0.0 -17.9608 -40.202 -92.3356 0.0 0.0 0.0 0.0 0.0 0.0 110.4364 0.558181 -363.699 -0.666834 41.9305 14.08 0.0 126.641 0.0 -59.9825 28.7838 -11.0615 0.0 0.0 0.0 0.0 0.0 0.0 11.8295 -45.3738 16.17 0.0 62.9123 0.0 -12.1621 0.36240005 4.37062 0.0 -33.481598 0.0 -0.424965 -45.9121 -3.32355 0.0 65.2177 0.0 11.5264 5.21204 5.95009 0.0 -48.4987 0.0 
  1.6956500244140624 -1.8810400390625 7.347919921875 -14.5762 79.8107 15.262 3.72432 18.7177 -0.790195 1.62103 -11.3442 -0.0948919 4.18514 58.5671 337.503 113.423 -73.9332 815.195 -116.9397 -4.55099 9.49787 -27.614 24.4182 26.9798 0.0 93.0964 0.0 -15.8446 -40.5138 -91.806 0.0 0.0 0.0 0.0 0.0 0.0 110.4935 0.599746 -364.136 0.0534554 41.2718 12.3451 0.0 125.461 0.0 -60.1673 26.8792 -10.7087 0.0 0.0 0.0 0.0 0.0 0.0 11.8275 -45.3384 16.1491 0.0 62.9367 0.0 -12.1686 0.3729 4.36752 0.0 -33.4673 0.0 -0.432374 -45.8694 -3.35 0.0 65.2358 0.0 11.5118 5.2282696 5.95314 0.0 -48.5328 0.0 
